<svg width="103" height="82" viewBox="0 0 103 82" fill="none" xmlns="http://www.w3.org/2000/svg">
<g clip-path="url(#clip0_252_262)">
<rect width="103" height="82" rx="20" fill="white"/>
<path d="M52.011 55.9452C70.5232 55.9452 83.3082 40.9843 83.3082 36.3104C83.3082 31.613 70.5008 16.6755 52.011 16.6755C33.7515 16.6744 20.6914 31.6119 20.6914 36.3093C20.6914 40.9832 33.728 55.9452 52.011 55.9452ZM52.011 52.3235C36.936 52.3235 24.7011 39.5385 24.7011 36.3081C24.7011 33.5821 36.936 20.2939 52.011 20.2939C67.0413 20.2939 79.2985 33.5821 79.2985 36.3081C79.2985 39.5396 67.0413 52.3235 52.011 52.3235ZM52.011 49.139C59.137 49.139 64.8642 43.2966 64.8642 36.3081C64.8642 29.1374 59.137 23.4784 52.011 23.4784C44.8403 23.4784 39.0896 29.1363 39.1354 36.3081C39.1578 43.2966 44.8403 49.139 52.011 49.139ZM52.011 40.5706C49.6293 40.5706 47.7039 38.6451 47.7039 36.3081C47.7039 33.9488 49.6282 32.048 52.011 32.048C54.3703 32.048 56.2958 33.9488 56.2958 36.3081C56.2958 38.6451 54.3714 40.5706 52.011 40.5706Z" fill="#0C4D96"/>
<path d="M52 73.0547C54.2664 73.0547 56.3393 72.6676 56.1875 72.2133L54.0937 60.8542C54.0937 60.7426 53.8731 60.6356 53.4805 60.5567C53.0878 60.4778 52.5553 60.4335 52 60.4335C51.4447 60.4335 50.9121 60.4778 50.5195 60.5567C50.1268 60.6356 49.9062 60.7426 49.9062 60.8542L47.8125 72.2133C47.6607 72.6676 49.7335 73.0547 52 73.0547Z" fill="#0C4D96"/>
</g>
<defs>
<clipPath id="clip0_252_262">
<rect width="103" height="82" rx="20" fill="white"/>
</clipPath>
</defs>
</svg>
