<svg width="374" height="204" viewBox="0 0 374 204" fill="none" xmlns="http://www.w3.org/2000/svg">
<path d="M186.595 144.643C238.143 144.643 273.744 102.984 273.744 89.9694C273.744 76.8894 238.081 35.2954 186.595 35.2954C135.751 35.2923 99.3846 76.8862 99.3846 89.9663C99.3846 102.981 135.685 144.643 186.595 144.643ZM186.595 134.559C144.618 134.559 110.55 98.9582 110.55 89.9632C110.55 82.3723 144.618 45.3709 186.595 45.3709C228.448 45.3709 262.578 82.3723 262.578 89.9632C262.578 98.9613 228.448 134.559 186.595 134.559ZM186.595 125.691C206.438 125.691 222.385 109.423 222.385 89.9632C222.385 69.9959 206.438 54.2383 186.595 54.2383C166.628 54.2383 150.615 69.9928 150.743 89.9632C150.805 109.423 166.628 125.691 186.595 125.691ZM186.595 101.832C179.963 101.832 174.602 96.4705 174.602 89.9632C174.602 83.3936 179.96 78.1005 186.595 78.1005C193.165 78.1005 198.526 83.3936 198.526 89.9632C198.526 96.4705 193.168 101.832 186.595 101.832Z" fill="white"/>
<path d="M186.564 192.285C192.875 192.285 198.647 191.207 198.224 189.942L192.394 158.312C192.394 158.002 191.78 157.704 190.687 157.484C189.593 157.264 188.11 157.141 186.564 157.141C185.018 157.141 183.535 157.264 182.442 157.484C181.348 157.704 180.734 158.002 180.734 158.312L174.904 189.942C174.481 191.207 180.253 192.285 186.564 192.285Z" fill="white" stroke="white" stroke-width="3" stroke-linecap="round" stroke-linejoin="round"/>
</svg>
