<svg width="103" height="74" viewBox="0 0 103 74" fill="none" xmlns="http://www.w3.org/2000/svg">
<path d="M56.0112 51.945C74.5235 51.945 87.3085 36.984 87.3085 32.3101C87.3085 27.6128 74.5011 12.6753 56.0112 12.6753C37.7517 12.6742 24.6917 27.6116 24.6917 32.309C24.6917 36.9829 37.7282 51.945 56.0112 51.945ZM56.0112 48.3233C40.9362 48.3233 28.7014 35.5382 28.7014 32.3079C28.7014 29.5818 40.9362 16.2936 56.0112 16.2936C71.0415 16.2936 83.2988 29.5818 83.2988 32.3079C83.2988 35.5394 71.0415 48.3233 56.0112 48.3233ZM56.0112 45.1387C63.1373 45.1387 68.8645 39.2964 68.8645 32.3079C68.8645 25.1372 63.1373 19.4782 56.0112 19.4782C48.8405 19.4782 43.0898 25.136 43.1357 32.3079C43.158 39.2964 48.8405 45.1387 56.0112 45.1387ZM56.0112 36.5703C53.6296 36.5703 51.7041 34.6448 51.7041 32.3079C51.7041 29.9486 53.6284 28.0477 56.0112 28.0477C58.3706 28.0477 60.296 29.9486 60.296 32.3079C60.296 34.6448 58.3717 36.5703 56.0112 36.5703Z" fill="#0C4D96"/>
<path d="M56 69.0547C58.2664 69.0547 60.3393 68.6676 60.1875 68.2133L58.0937 56.8542C58.0937 56.7426 57.8731 56.6356 57.4805 56.5567C57.0878 56.4778 56.5553 56.4335 56 56.4335C55.4447 56.4335 54.9121 56.4778 54.5195 56.5567C54.1268 56.6356 53.9062 56.7426 53.9062 56.8542L51.8125 68.2133C51.6607 68.6676 53.7335 69.0547 56 69.0547Z" fill="#0C4D96"/>
</svg>
