<svg width="50" height="50" viewBox="0 0 50 50" fill="none" xmlns="http://www.w3.org/2000/svg">
<path d="M40.2922 9.96269L39.0422 9.34237C38.1047 8.87519 37.3234 8.40956 36.6984 7.63144L34.3531 5.30175C32.4781 3.59237 29.8203 2.9705 27.475 3.74706C25.9125 4.21269 24.1937 4.21269 22.6312 3.74706C20.4422 2.65956 17.9422 3.12519 16.2219 4.67987L13.4094 7.633C12.6281 8.25331 11.8469 8.87519 11.0656 9.34237L9.81406 9.96269C7.62656 11.0517 6.37656 13.5377 6.68906 16.0252L8.40781 24.883C8.56406 25.8142 9.34531 26.4361 10.2828 26.4361C19.5312 26.4361 29.6875 26.5924 39.8234 26.5924C40.7609 26.5924 41.3859 25.9705 41.5422 25.0377L43.2609 16.1783C43.7297 13.5377 42.4797 11.0517 40.2922 9.96269Z" fill="#212121"/>
<path d="M40.0344 23.5391C39.9172 24.9828 39.8234 26.5922 39.8234 26.5922C40.7609 26.5922 41.3859 25.9703 41.5422 25.0375L41.6953 24.2469C42.6588 24.9013 43.3441 25.8909 43.6178 27.023C43.8915 28.1551 43.7339 29.3485 43.1758 30.3708C42.6177 31.393 41.699 32.1709 40.5987 32.5528C39.4984 32.9348 38.2953 32.8934 37.2239 32.4368C36.1524 31.9802 35.2893 31.141 34.8027 30.0829C34.3162 29.0247 34.2409 27.8233 34.5917 26.7127C34.9425 25.6021 35.6942 24.6618 36.7004 24.0751C37.7065 23.4885 38.895 23.2974 40.0344 23.5391ZM8.28594 24.2594L8.40782 24.8813C8.56407 25.8141 9.34532 26.436 10.2828 26.436C10.2828 26.436 10.1906 24.9703 10.0766 23.5156C10.3568 23.4636 10.6438 23.4375 10.9375 23.4375C12.0591 23.4381 13.1433 23.8409 13.9933 24.5726C14.8433 25.3044 15.4027 26.3167 15.57 27.4257C15.7374 28.5347 15.5015 29.667 14.9052 30.617C14.309 31.5669 13.3919 32.2716 12.3204 32.6031C11.2489 32.9346 10.0941 32.8709 9.06555 32.4236C8.03701 31.9763 7.20296 31.175 6.71479 30.1652C6.22663 29.1555 6.1167 28.0041 6.40498 26.9202C6.69326 25.8363 7.36063 24.8917 8.28594 24.2578" fill="#F4C6AD"/>
<path d="M10.1406 26.4313C10.1875 26.4344 10.2349 26.4359 10.2828 26.4359C10.2828 26.4359 10.1266 23.95 9.97034 22.2406C9.97034 21.4625 10.2828 20.5312 10.9078 20.0641L11.3766 19.5984C12.1578 18.9766 12.4703 18.0437 12.4703 17.1125V14.625C12.4703 13.8484 12.9391 13.2266 13.7203 13.0719C15.5969 12.6047 19.5047 11.8281 25.1313 11.8281C30.7578 11.8281 34.6656 12.6047 36.5407 13.0719C37.1657 13.2266 37.7907 13.8484 37.7907 14.625V17.1125C37.7907 18.0437 38.2594 18.9766 38.8844 19.5969L39.1969 20.2203C39.8219 20.8406 40.1344 21.6188 40.1344 22.3953C39.9782 23.95 39.8219 26.5906 39.8219 26.5906H39.875L39.1016 38.125C38.6328 43.2812 34.5797 46.875 29.7469 46.875H20.3907C15.4016 46.875 11.5031 43.2812 11.036 38.125L10.1406 26.4313Z" fill="#FFD7C2"/>
<path d="M23.886 27.386L22.3391 32.3392C22.2657 32.5755 22.2492 32.8257 22.2909 33.0696C22.3326 33.3135 22.4314 33.5441 22.5791 33.7426C22.7269 33.941 22.9194 34.1018 23.1411 34.2117C23.3628 34.3216 23.6073 34.3776 23.8547 34.3751H26.1453C27.2203 34.3751 27.9781 33.3407 27.661 32.3376L26.1141 27.3845C25.7813 26.2892 24.2344 26.2892 23.886 27.3845" fill="#E5AF93"/>
<path d="M25 37.336C23.5975 37.3454 22.2133 37.0174 20.9641 36.3798C20.5657 36.1767 20.136 36.6267 20.3875 36.9892C20.8925 37.7494 21.5782 38.3725 22.3832 38.8026C23.1882 39.2326 24.0874 39.4562 25 39.4532C25.9127 39.4562 26.8118 39.2326 27.6169 38.8026C28.4219 38.3725 29.1076 37.7494 29.6125 36.9892C29.8625 36.6126 29.4344 36.1767 29.036 36.3798C27.7867 37.0174 26.4025 37.3454 25 37.336Z" fill="#990838"/>
<path d="M14.086 27.1359C14.3118 26.2391 14.8361 25.4458 15.5726 24.8865C16.3091 24.3272 17.2141 24.0351 18.1386 24.0584C19.0631 24.0817 19.9522 24.4189 20.6597 25.0145C21.3672 25.6102 21.8509 26.4289 22.0313 27.3359C22.049 27.4329 22.0451 27.5325 22.0198 27.6278C21.9946 27.723 21.9486 27.8115 21.8851 27.8869C21.8217 27.9623 21.7423 28.0227 21.6528 28.0639C21.5633 28.105 21.4658 28.1259 21.3672 28.125H14.8719C14.75 28.1263 14.6295 28.0997 14.5194 28.0474C14.4094 27.995 14.3128 27.9181 14.237 27.8227C14.1611 27.7273 14.1081 27.6158 14.082 27.4968C14.0558 27.3778 14.0572 27.2543 14.086 27.1359ZM35.9141 27.1359C35.6884 26.2591 35.1785 25.4819 34.4641 24.9258C33.7496 24.3696 32.871 24.0661 31.9657 24.0625C31.0232 24.0602 30.1093 24.3857 29.3804 24.9831C28.6515 25.5806 28.153 26.4129 27.9703 27.3375C27.9529 27.4342 27.957 27.5335 27.9823 27.6285C28.0076 27.7234 28.0535 27.8116 28.1167 27.8868C28.18 27.9619 28.259 28.0223 28.3482 28.0634C28.4374 28.1046 28.5346 28.1256 28.6328 28.125H35.1282C35.25 28.1263 35.3706 28.0997 35.4806 28.0474C35.5907 27.995 35.6873 27.9181 35.7631 27.8227C35.8389 27.7273 35.8919 27.6158 35.9181 27.4968C35.9443 27.3778 35.9429 27.2543 35.9141 27.1359Z" fill="white"/>
<path d="M16.0297 27.4331C16.0297 27.0622 16.1091 26.6956 16.2626 26.3579C16.416 26.0202 16.6399 25.7193 16.9193 25.4753C17.1986 25.2313 17.5269 25.0499 17.8822 24.9432C18.2374 24.8366 18.6114 24.8072 18.979 24.857C19.3465 24.9068 19.6991 25.0347 20.0132 25.2321C20.3272 25.4295 20.5954 25.6917 20.7997 26.0013C21.004 26.3109 21.1397 26.6606 21.1977 27.0269C21.2557 27.3933 21.2347 27.7678 21.1359 28.1253H16.1219C16.0603 27.8997 16.0303 27.667 16.0297 27.4331ZM33.9703 27.4331C33.9703 25.9863 32.7984 24.8316 31.3641 24.8316C31.0223 24.8297 30.6837 24.8958 30.3677 25.026C30.0517 25.1562 29.7648 25.3479 29.5236 25.59C29.2824 25.832 29.0917 26.1196 28.9627 26.4361C28.8336 26.7525 28.7688 27.0914 28.7719 27.4331C28.7719 27.679 28.8031 27.9097 28.8656 28.1253H33.8781C33.9406 27.8941 33.9719 27.6785 33.9719 27.4331" fill="#7D4533"/>
<path d="M18.6359 25.9551C18.8912 25.9544 19.1424 26.0198 19.3649 26.1449C19.5875 26.27 19.7738 26.4506 19.906 26.6691C20.0381 26.8875 20.1114 27.1364 20.1189 27.3916C20.1263 27.6468 20.0676 27.8996 19.9484 28.1254H17.325C17.2058 27.8996 17.1471 27.6468 17.1546 27.3916C17.162 27.1364 17.2353 26.8875 17.3675 26.6691C17.4996 26.4506 17.686 26.27 17.9085 26.1449C18.1311 26.0198 18.3822 25.9544 18.6375 25.9551M31.3484 25.9551C31.0931 25.9544 30.842 26.0198 30.6194 26.1449C30.3969 26.27 30.2105 26.4506 30.0784 26.6691C29.9463 26.8875 29.8729 27.1364 29.8655 27.3916C29.8581 27.6468 29.9168 27.8996 30.0359 28.1254H32.6594C32.7785 27.8996 32.8372 27.6468 32.8298 27.3916C32.8224 27.1364 32.749 26.8875 32.6169 26.6691C32.4848 26.4506 32.2984 26.27 32.0758 26.1449C31.8533 26.0198 31.6037 25.9544 31.3484 25.9551Z" fill="black"/>
<path d="M18.2031 26.4375C18.2031 26.6969 17.9968 26.9062 17.7422 26.9062C17.6189 26.9046 17.5013 26.8545 17.4147 26.7668C17.3282 26.679 17.2797 26.5607 17.2797 26.4375C17.2797 26.1781 17.4859 25.9688 17.7422 25.9688C17.9984 25.9688 18.2047 26.1781 18.2047 26.4375M31.0094 26.4375C31.0094 26.6969 30.8015 26.9062 30.5453 26.9062C30.4221 26.9046 30.3044 26.8545 30.2179 26.7668C30.1313 26.679 30.0828 26.5607 30.0828 26.4375C30.0828 26.1781 30.2906 25.9688 30.5453 25.9688C30.8015 25.9688 31.0094 26.1781 31.0094 26.4375Z" fill="white"/>
<path d="M14.0047 20.2922L14.0078 20.2891L14.0125 20.286L14.0266 20.2751L14.061 20.2469L14.1656 20.1688C14.2521 20.1053 14.3677 20.0271 14.5125 19.9344C14.8031 19.7516 15.2156 19.5251 15.736 19.3188C17.118 18.7783 18.6198 18.6191 20.0844 18.8579C20.2862 18.8897 20.4798 18.9609 20.654 19.0675C20.8283 19.1741 20.9799 19.314 21.1001 19.4792C21.2203 19.6444 21.3068 19.8316 21.3546 20.0303C21.4025 20.2289 21.4107 20.435 21.3789 20.6368C21.3471 20.8386 21.2759 21.0321 21.1693 21.2064C21.0627 21.3807 20.9228 21.5323 20.7576 21.6525C20.5924 21.7727 20.4051 21.8592 20.2065 21.907C20.0079 21.9549 19.8018 21.9631 19.6 21.9313C18.684 21.7782 17.7435 21.8754 16.8781 22.2126C16.5698 22.3336 16.2763 22.4893 16.0031 22.6766L15.9813 22.6938C15.8237 22.8237 15.6421 22.9213 15.4468 22.981C15.2515 23.0407 15.0463 23.0613 14.843 23.0417C14.6398 23.0221 14.4424 22.9627 14.262 22.8668C14.0817 22.7709 13.9221 22.6405 13.7922 22.4829C13.6623 22.3253 13.5647 22.1437 13.5051 21.9484C13.4454 21.7531 13.4247 21.5479 13.4443 21.3447C13.4839 20.9341 13.6849 20.5561 14.0031 20.2938M35.836 20.2922L35.8328 20.2891L35.8281 20.286L35.8141 20.2751L35.7797 20.2469L35.675 20.1688C35.562 20.0868 35.4464 20.0087 35.3281 19.9344C34.9391 19.6938 34.5298 19.4878 34.1047 19.3188C32.7227 18.7783 31.2209 18.6191 29.7563 18.8579C29.5545 18.8897 29.3609 18.9609 29.1866 19.0675C29.0124 19.1741 28.8608 19.314 28.7406 19.4792C28.6204 19.6444 28.5339 19.8316 28.486 20.0303C28.4382 20.2289 28.4299 20.435 28.4617 20.6368C28.4935 20.8386 28.5648 21.0321 28.6714 21.2064C28.778 21.3807 28.9179 21.5323 29.0831 21.6525C29.2483 21.7727 29.4355 21.8592 29.6341 21.907C29.8327 21.9549 30.0388 21.9631 30.2406 21.9313C31.1567 21.7782 32.0971 21.8754 32.9625 22.2126C33.2698 22.3359 33.5631 22.4915 33.8375 22.6766L33.8594 22.6938C34.1779 22.9559 34.5874 23.0808 34.9979 23.0409C35.4085 23.0011 35.7863 22.7998 36.0485 22.4813C36.3106 22.1628 36.4354 21.7533 36.3956 21.3428C36.3557 20.9322 36.1544 20.5544 35.836 20.2922Z" fill="#212121"/>
</svg>
