<svg width="50" height="50" viewBox="0 0 50 50" fill="none" xmlns="http://www.w3.org/2000/svg">
<path d="M46.875 27.9188C46.875 29.3922 46.5516 30.8078 45.9313 32.075C45.8293 32.2815 45.7763 32.5087 45.7763 32.7391C45.7763 32.9694 45.8293 33.1966 45.9313 33.4031C46.5219 34.6406 46.875 36.0266 46.875 37.5C46.875 42.6875 42.6875 46.875 37.5 46.875H12.5C7.3125 46.875 3.125 42.6875 3.125 37.5C3.125 36.0266 3.47813 34.6406 4.06875 33.4016C4.17047 33.1952 4.22337 32.9683 4.22337 32.7383C4.22337 32.5083 4.17047 32.2813 4.06875 32.075C3.452 30.776 3.12974 29.3568 3.125 27.9188C3.12375 26.0362 3.6746 24.1946 4.70938 22.6219L4.71719 22.6125C5.71754 21.0778 6.2496 19.2851 6.24844 17.4531V17.4219C6.24844 16.1596 6.49715 14.9096 6.98036 13.7434C7.46357 12.5773 8.17181 11.5177 9.06462 10.6254C9.95743 9.73299 11.0173 9.02526 12.1837 8.54262C13.3501 8.05998 14.6002 7.81188 15.8625 7.8125C16.3938 7.8125 16.8938 7.54687 17.1891 7.13437C18.0798 5.89452 19.2526 4.88432 20.6107 4.18718C21.9689 3.49004 23.4734 3.12596 25 3.125C26.5269 3.12571 28.0317 3.48968 29.3901 4.18683C30.7486 4.88398 31.9217 5.89431 32.8125 7.13437C33.1078 7.57656 33.6094 7.8125 34.1406 7.8125C36.6892 7.8125 39.1334 8.82491 40.9355 10.627C42.7376 12.4291 43.75 14.8733 43.75 17.4219V17.4531C43.75 19.2813 44.2813 21.0781 45.2828 22.6125L45.2891 22.6203C45.6109 23.0891 45.8734 23.5891 46.1078 24.1156H46.0922C46.5953 25.2797 46.875 26.5578 46.875 27.9188Z" fill="#212121"/>
<path d="M43.75 27.9688C43.75 28.5843 43.6288 29.1939 43.3932 29.7626C43.1576 30.3313 42.8123 30.848 42.3771 31.2833C41.9418 31.7186 41.425 32.0639 40.8563 32.2994C40.2876 32.535 39.6781 32.6562 39.0625 32.6562C38.4469 32.6562 37.8374 32.535 37.2687 32.2994C36.7 32.0639 36.1832 31.7186 35.7479 31.2833C35.3127 30.848 34.9674 30.3313 34.7318 29.7626C34.4962 29.1939 34.375 28.5843 34.375 27.9688C34.375 26.7255 34.8689 25.5333 35.7479 24.6542C36.627 23.7751 37.8193 23.2812 39.0625 23.2812C40.3057 23.2812 41.498 23.7751 42.3771 24.6542C43.2561 25.5333 43.75 26.7255 43.75 27.9688ZM16.0938 28.125C16.0938 29.3682 15.5999 30.5605 14.7208 31.4396C13.8417 32.3186 12.6495 32.8125 11.4062 32.8125C10.163 32.8125 8.97076 32.3186 8.09169 31.4396C7.21261 30.5605 6.71875 29.3682 6.71875 28.125C6.71875 26.8818 7.21261 25.6895 8.09169 24.8104C8.97076 23.9314 10.163 23.4375 11.4062 23.4375C12.6495 23.4375 13.8417 23.9314 14.7208 24.8104C15.5999 25.6895 16.0937 26.8818 16.0938 28.125Z" fill="#F4C6AD"/>
<path d="M10.1797 24.2908H10.2156L10.1859 23.5173L10.1562 22.6267C10.2156 19.8611 11.8281 18.7923 12.5156 18.4345C12.5635 18.4189 12.6135 18.3991 12.6656 18.3751C12.7187 18.3522 12.7687 18.3324 12.8156 18.3158C14.3892 17.6068 15.6297 16.3193 16.2797 14.7205L16.5187 14.1548C16.5709 14.0266 16.6568 13.9148 16.7673 13.8312C16.8778 13.7477 17.0088 13.6956 17.1464 13.6804C17.2841 13.6652 17.4233 13.6875 17.5493 13.7449C17.6754 13.8022 17.7836 13.8926 17.8625 14.0064C18.8986 15.5129 20.2863 16.7442 21.9054 17.5936C23.5245 18.4431 25.3263 18.8851 27.1547 18.8814H36.5344C37.0594 18.8814 39.6875 19.1361 39.8438 22.7626L39.4984 31.2783C39.1391 39.4423 32.7641 44.9251 24.9812 44.9251C17.2 44.9251 10.8234 39.4423 10.4641 31.2783L10.1797 24.2908Z" fill="#FFD7C2"/>
<path d="M23.886 27.386L22.3391 32.3392C22.2657 32.5755 22.2492 32.8257 22.2909 33.0696C22.3326 33.3135 22.4314 33.5441 22.5791 33.7426C22.7269 33.941 22.9194 34.1018 23.1411 34.2117C23.3628 34.3216 23.6073 34.3776 23.8547 34.3751H26.1453C27.2203 34.3751 27.9781 33.3407 27.661 32.3376L26.1141 27.3845C25.7813 26.2892 24.2344 26.2892 23.886 27.3845" fill="#E5AF93"/>
<path d="M25 36.5548C23.5975 36.5641 22.2133 36.2362 20.9641 35.5985C20.5657 35.3954 20.136 35.8454 20.3875 36.2079C20.8925 36.9682 21.5782 37.5913 22.3832 38.0213C23.1882 38.4514 24.0874 38.6749 25 38.672C25.9127 38.6749 26.8118 38.4514 27.6169 38.0213C28.4219 37.5913 29.1076 36.9682 29.6125 36.2079C29.8625 35.8314 29.4344 35.3954 29.036 35.5985C27.7867 36.2362 26.4025 36.5641 25 36.5548Z" fill="#990838"/>
<path d="M17.1875 24.0625C18.75 24.0625 20.3516 25.3125 21.1328 26.5625C20.1969 26.85 19.3281 27.0719 18.4797 27.2891C17.4844 27.5422 16.5188 27.7891 15.5078 28.125L13.9453 27.0312C13.3203 26.5625 13.1641 25.7813 14.1016 25.1563C15.0391 24.375 16.0938 24.0625 17.1875 24.0625ZM33.125 24.0625C31.5625 24.0625 29.9609 25.3125 29.1797 26.5625C30.1156 26.85 30.9844 27.0719 31.8328 27.2891C32.8266 27.5422 33.7938 27.7891 34.8047 28.125L36.3672 27.0312C36.9922 26.5625 37.1484 25.7813 36.2109 25.1563C35.2734 24.375 34.2188 24.0625 33.125 24.0625Z" fill="black"/>
<path d="M14.086 27.1359C14.3118 26.2391 14.8361 25.4458 15.5726 24.8865C16.3091 24.3272 17.2141 24.0351 18.1386 24.0584C19.0631 24.0817 19.9522 24.4189 20.6597 25.0145C21.3672 25.6102 21.8509 26.4289 22.0313 27.3359C22.049 27.4329 22.0451 27.5325 22.0198 27.6278C21.9946 27.723 21.9486 27.8115 21.8851 27.8869C21.8217 27.9623 21.7423 28.0227 21.6528 28.0639C21.5633 28.105 21.4658 28.1259 21.3672 28.125H14.8719C14.75 28.1263 14.6295 28.0997 14.5194 28.0474C14.4094 27.995 14.3128 27.9181 14.237 27.8227C14.1611 27.7273 14.1081 27.6158 14.082 27.4968C14.0558 27.3778 14.0572 27.2543 14.086 27.1359ZM35.9141 27.1359C35.6884 26.2591 35.1785 25.4819 34.4641 24.9258C33.7496 24.3696 32.871 24.0661 31.9657 24.0625C31.0232 24.0602 30.1093 24.3857 29.3804 24.9831C28.6515 25.5806 28.153 26.4129 27.9703 27.3375C27.9529 27.4342 27.957 27.5335 27.9823 27.6285C28.0076 27.7234 28.0535 27.8116 28.1167 27.8868C28.18 27.9619 28.259 28.0223 28.3482 28.0634C28.4374 28.1046 28.5346 28.1256 28.6328 28.125H35.1282C35.25 28.1263 35.3706 28.0997 35.4806 28.0474C35.5907 27.995 35.6873 27.9181 35.7631 27.8227C35.8389 27.7273 35.8919 27.6158 35.9181 27.4968C35.9443 27.3778 35.9429 27.2543 35.9141 27.1359Z" fill="white"/>
<path d="M16.0297 27.4327C16.0297 27.0617 16.1091 26.6951 16.2626 26.3574C16.416 26.0197 16.6399 25.7188 16.9193 25.4748C17.1986 25.2308 17.5269 25.0494 17.8822 24.9427C18.2374 24.8361 18.6114 24.8067 18.979 24.8565C19.3465 24.9063 19.6991 25.0342 20.0132 25.2316C20.3272 25.429 20.5954 25.6912 20.7997 26.0008C21.004 26.3104 21.1397 26.6601 21.1977 27.0264C21.2557 27.3928 21.2347 27.7673 21.1359 28.1248H16.1219C16.0603 27.8992 16.0303 27.6665 16.0297 27.4327ZM33.9703 27.4327C33.9703 25.9858 32.7984 24.8311 31.3641 24.8311C31.0223 24.8292 30.6837 24.8953 30.3677 25.0255C30.0517 25.1557 29.7648 25.3474 29.5236 25.5895C29.2824 25.8315 29.0917 26.1192 28.9627 26.4356C28.8336 26.752 28.7688 27.0909 28.7719 27.4327C28.7719 27.6785 28.8031 27.9092 28.8656 28.1248H33.8781C33.9406 27.8936 33.9719 27.678 33.9719 27.4327" fill="#7D4533"/>
<path d="M18.6359 25.9546C18.8912 25.9539 19.1424 26.0193 19.3649 26.1444C19.5875 26.2695 19.7738 26.4501 19.906 26.6686C20.0381 26.887 20.1114 27.136 20.1189 27.3911C20.1263 27.6463 20.0676 27.8991 19.9484 28.1249H17.325C17.2058 27.8991 17.1471 27.6463 17.1546 27.3911C17.162 27.136 17.2353 26.887 17.3675 26.6686C17.4996 26.4501 17.686 26.2695 17.9085 26.1444C18.1311 26.0193 18.3822 25.9539 18.6375 25.9546M31.3484 25.9546C31.0931 25.9539 30.842 26.0193 30.6194 26.1444C30.3969 26.2695 30.2105 26.4501 30.0784 26.6686C29.9463 26.887 29.8729 27.136 29.8655 27.3911C29.8581 27.6463 29.9168 27.8991 30.0359 28.1249H32.6594C32.7785 27.8991 32.8372 27.6463 32.8298 27.3911C32.8224 27.136 32.749 26.887 32.6169 26.6686C32.4848 26.4501 32.2984 26.2695 32.0758 26.1444C31.8533 26.0193 31.6037 25.9539 31.3484 25.9546Z" fill="black"/>
<path d="M18.2031 26.4375C18.2031 26.6969 17.9968 26.9062 17.7422 26.9062C17.6189 26.9046 17.5013 26.8545 17.4147 26.7668C17.3282 26.679 17.2797 26.5607 17.2797 26.4375C17.2797 26.1781 17.4859 25.9688 17.7422 25.9688C17.9984 25.9688 18.2047 26.1781 18.2047 26.4375M31.0094 26.4375C31.0094 26.6969 30.8015 26.9062 30.5453 26.9062C30.4221 26.9046 30.3044 26.8545 30.2179 26.7668C30.1313 26.679 30.0828 26.5607 30.0828 26.4375C30.0828 26.1781 30.2906 25.9688 30.5453 25.9688C30.8015 25.9688 31.0094 26.1781 31.0094 26.4375Z" fill="white"/>
<path d="M15.1016 22.7891L15.0891 22.7969C14.9119 22.8944 14.7039 22.9195 14.5086 22.8668C14.3134 22.8141 14.1462 22.6878 14.0422 22.5144C13.9382 22.341 13.9054 22.134 13.9509 21.9369C13.9964 21.7399 14.1165 21.5681 14.2859 21.4578L14.2875 21.4562L14.2906 21.4531L14.3 21.4484L14.3266 21.4328C14.4669 21.3509 14.6113 21.2763 14.7594 21.2094C15.0469 21.0719 15.4547 20.8969 15.9547 20.7375C16.9437 20.4219 18.3297 20.1562 19.8234 20.4203C19.9245 20.4382 20.021 20.4757 20.1076 20.5309C20.1941 20.5861 20.2689 20.6577 20.3278 20.7418C20.3866 20.8259 20.4283 20.9207 20.4505 21.0209C20.4727 21.1211 20.4749 21.2247 20.457 21.3258C20.4392 21.4268 20.4016 21.5234 20.3464 21.6099C20.2913 21.6964 20.2196 21.7713 20.1355 21.8301C20.0514 21.8889 19.9566 21.9306 19.8564 21.9528C19.7562 21.975 19.6526 21.9772 19.5516 21.9594C18.3906 21.7531 17.275 21.9562 16.4297 22.2266C15.9706 22.3727 15.526 22.561 15.1016 22.7891ZM35.7141 21.4562L35.7109 21.4531L35.7031 21.4484L35.675 21.4328L35.5812 21.3797C35.0908 21.1208 34.5784 20.9058 34.05 20.7375C33.0578 20.4219 31.6734 20.1562 30.1781 20.4203C29.974 20.4564 29.7926 20.572 29.6738 20.7418C29.555 20.9116 29.5085 21.1217 29.5445 21.3258C29.5806 21.5299 29.6962 21.7113 29.866 21.8301C30.0358 21.9489 30.2459 21.9954 30.45 21.9594C31.6109 21.7531 32.7266 21.9562 33.5734 22.2266C34.032 22.3728 34.4761 22.5611 34.9 22.7891L34.9125 22.7969C35.0903 22.9034 35.3031 22.9349 35.5041 22.8845C35.7051 22.8341 35.8779 22.7059 35.9844 22.5281C36.0909 22.3503 36.1224 22.1375 36.072 21.9365C36.0216 21.7355 35.8918 21.5627 35.7141 21.4562Z" fill="#212121"/>
</svg>
